PathFileType	3	(X/Y/Z)	F:\ViconData\AntennenMessung\Messung1\Session1\ID04.trc
DataRate	CameraRate	NumFrames	NumMarkers	Units	OrigDataRate	OrigDataStartFrame	OrigNumFrames
120.0	120.0	4	70	mm	120.0	433	1154	
Frame#	Time	Ashort			Along			Atop			A4			Bshort			Blong			Btop			B4			Cshort			Clong			Ctop			C4			Dshort			Dlong			Dtop			D4			Eshort			Elong			Etop			E4			Fshort			Flong			Ftop			F4			Gshort			Glong			Gtop			G4			Hshort			Hlong			Htop			H4			I1			I2			I3			I4			I5			WandAshort			WandAlong			WandAtop			WandA4			WandA15			WandBshort			WandB4			WandB5			WandBtop			WandBlong			WandCshort			WandClong			WandCtop			WandC4			WandC5			Acenter			Aantenna			Bcenter			Bantenna			Ccenter			Cantenna			Dcenter			Dantenna			Ecenter			Eantenna			Fcenter			Fantenna			Gcenter			Gantenna			Hcenter			Hantenna			Icenter			Iantenna			
		X1	Y1	Z1	X2	Y2	Z2	X3	Y3	Z3	X4	Y4	Z4	X5	Y5	Z5	X6	Y6	Z6	X7	Y7	Z7	X8	Y8	Z8	X9	Y9	Z9	X10	Y10	Z10	X11	Y11	Z11	X12	Y12	Z12	X13	Y13	Z13	X14	Y14	Z14	X15	Y15	Z15	X16	Y16	Z16	X17	Y17	Z17	X18	Y18	Z18	X19	Y19	Z19	X20	Y20	Z20	X21	Y21	Z21	X22	Y22	Z22	X23	Y23	Z23	X24	Y24	Z24	X25	Y25	Z25	X26	Y26	Z26	X27	Y27	Z27	X28	Y28	Z28	X29	Y29	Z29	X30	Y30	Z30	X31	Y31	Z31	X32	Y32	Z32	X33	Y33	Z33	X34	Y34	Z34	X35	Y35	Z35	X36	Y36	Z36	X37	Y37	Z37	X38	Y38	Z38	X39	Y39	Z39	X40	Y40	Z40	X41	Y41	Z41	X42	Y42	Z42	X43	Y43	Z43	X44	Y44	Z44	X45	Y45	Z45	X46	Y46	Z46	X47	Y47	Z47	X48	Y48	Z48	X49	Y49	Z49	X50	Y50	Z50	X51	Y51	Z51	X52	Y52	Z52	X53	Y53	Z53	X54	Y54	Z54	X55	Y55	Z55	X56	Y56	Z56	X57	Y57	Z57	X58	Y58	Z58	X59	Y59	Z59	X60	Y60	Z60	X61	Y61	Z61	X62	Y62	Z62	X63	Y63	Z63	X64	Y64	Z64	X65	Y65	Z65	X66	Y66	Z66	X67	Y67	Z67	X68	Y68	Z68	X69	Y69	Z69	X70	Y70	Z70	
433	3.6	-1038.2676	214.49187	-1644.2561	-1109.2825	203.37791	-1599.5518	-1063.5479	172.65498	-1625.6588	-1054.1288	262.10535	-1634.976	-1353.1487	235.25836	1003.9219	-1281.3198	227.16037	1052.1937	-1323.1606	194.1642	1020.8107	-1284.7057	287.84412	1052.8055	813.84064	187.72549	1209.436	892.55042	178.42299	1179.1742	844.27655	145.49315	1198.173	860.48535	292.5224	1167.3038	1115.7856	209.70599	-1401.6833	1056.2257	193.97101	-1460.1006	1095.0254	162.23296	-1423.9386	1069.8813	238.58542	-1425.926	-1204.4508	1685.9371	-1563.3397	-1129.1451	1688.3434	-1606.6022	-1173.1116	1724.3835	-1581.9769	-1133.5291	1581.0336	-1603.5299	-1239.7396	1699.2736	1119.2869	-1309.4672	1698.8091	1071.6527	-1270.3757	1736.1981	1096.6807	-1244.8296	1594.2745	1106.0493	988.84723	1664.2552	1162.2466	957.21509	1700.433	1183.5388	922.13831	1662.0996	1214.6859	939.76764	1659.3176	1159.8745	999.18561	1668.5603	-1579.5323	1058.7234	1669.9745	-1518.6654	1025.0511	1708.019	-1551.1605	1059.2812	1672.1583	-1585.5704	-287.24512	140.09674	480.00888	-371.38525	147.07693	481.31219	-327.57733	105.90155	481.08536	-323.98569	145.03183	512.36835	-324.71832	141.38501	434.29248																																														-1068.9093	209.69638	-1624.9669	-1074.4951	248.28757	-1624.246	-1321.7551	231.71904	1025.0195	-1320.3058	270.44965	1029.3602	848.06165	183.681	1196.2789	851.90375	222.44362	1194.3564	1088.6516	202.53757	-1428.2964	1082.5944	240.84106	-1432.438	-1171.9393	1686.976	-1582.0172	-1170.7179	1647.9951	-1582.0592	-1270.9883	1699.0653	1097.9395	-1271.6312	1660.093	1099.2609	952.79645	1705.4866	1186.5129	972.67999	1733.6252	1168.2411	1026.4661	1669.2081	-1551.6429	1027.8867	1630.2371	-1552.1271	-324.49188	143.18669	480.58578	-321.27585	182.05038	480.06509
434	3.6083333	-1038.2715	214.47318	-1644.2489	-1109.3088	203.36928	-1599.5385	-1063.5294	173.05276	-1625.8031	-1054.0411	262.01157	-1634.9797	-1352.9325	235.47685	1003.8663	-1281.4047	227.12404	1052.2914	-1323.1711	194.12259	1020.8621	-1284.7167	287.79947	1052.837	813.81598	187.681	1209.4987	892.87372	178.88376	1178.7135	844.18018	145.50052	1198.1582	860.5163	292.44598	1167.2863	1115.7239	209.42776	-1401.5643	1056.099	193.841	-1460.073	1094.9637	162.14261	-1423.772	1069.8719	238.57899	-1425.9801	-1204.5007	1686.0007	-1563.2074	-1129.1134	1688.2332	-1606.0996	-1173.1144	1724.3864	-1581.9915	-1133.5247	1581.0216	-1603.4938	-1239.724	1699.2537	1119.2769	-1309.4535	1698.7979	1071.6517	-1270.3696	1736.1903	1096.6736	-1244.6765	1594.3519	1106.692	988.83679	1664.2634	1162.2545	957.35223	1700.4229	1183.6216	922.1731	1662.095	1214.7496	939.73871	1659.3042	1159.8497	999.17883	1668.5613	-1579.5375	1058.8575	1670.1526	-1518.6545	1025.0499	1708.0087	-1551.1605	1059.2815	1672.1628	-1585.5741	-287.27579	140.05049	480.13623	-371.63654	147.50011	481.1861	-327.59781	105.85135	481.10107	-323.99554	145.08461	512.27808	-324.65909	141.34557	434.2948																																														-1068.7817	209.70407	-1625.0458	-1074.313	248.30159	-1624.2484	-1321.6162	231.81982	1025.0676	-1320.0188	270.54681	1029.3883	847.72772	183.90742	1196.2932	851.31067	222.69679	1194.4098	1088.6897	202.36067	-1428.0923	1082.712	240.67937	-1432.2086	-1171.879	1686.9667	-1581.7677	-1170.5922	1647.9885	-1581.5347	-1270.9829	1699.0492	1097.927	-1271.6265	1660.0768	1099.2422	952.93237	1705.4989	1186.621	972.86707	1733.6287	1168.3911	1026.5475	1669.291	-1551.6166	1028.0547	1630.3228	-1552.0756	-324.29535	143.31956	480.59692	-320.87149	182.16547	480.07425
435	3.6166667	-1038.2568	214.43916	-1644.2295	-1109.2892	203.42416	-1599.5963	-1063.6719	173.12621	-1625.6625	-1054.167	262.05936	-1634.9617	-1352.9707	235.46806	1003.8821	-1281.3972	227.14337	1052.3153	-1323.1863	194.06204	1020.8502	-1284.535	287.91974	1052.6832	813.81262	187.65659	1209.4821	892.49561	178.33069	1179.2815	844.1908	145.5952	1198.1677	860.35229	292.38367	1167.2803	1115.7341	209.42339	-1401.5873	1056.1427	193.95816	-1460.1957	1095.0221	162.37683	-1423.9128	1069.8337	238.56453	-1425.9923	-1204.4427	1685.9415	-1563.3435	-1129.1061	1688.2312	-1606.0955	-1173.116	1724.3823	-1581.9875	-1133.5826	1581.0751	-1603.543	-1239.7319	1699.2653	1119.2802	-1309.3771	1698.7024	1071.6202	-1270.386	1736.1969	1096.672	-1244.7522	1593.9137	1106.5471	988.84497	1664.2662	1162.2665	957.0014	1700.5767	1183.6007	922.17322	1662.0396	1214.6859	939.72729	1659.2906	1159.8998	999.18884	1668.5626	-1579.5411	1058.7189	1669.9854	-1518.6793	1025.0524	1708.0244	-1551.1687	1059.2964	1672.1116	-1585.4749	-287.26379	140.08482	480.04391	-371.68146	147.51196	481.14545	-327.52972	105.95757	481.04865	-323.96387	145.06131	512.33942	-324.6608	141.36208	434.27979																																														-1068.9065	209.68631	-1624.9707	-1074.4333	248.2858	-1624.2404	-1321.6527	231.82545	1025.0747	-1320.0801	270.55215	1029.407	848.00171	183.60431	1196.3594	851.88812	222.36635	1194.5153	1088.7616	202.42346	-1428.1146	1082.77	240.75009	-1432.1361	-1171.8829	1686.9312	-1581.8203	-1170.5996	1647.9525	-1581.6466	-1270.9413	1699.0128	1097.9226	-1271.5233	1660.0393	1099.2335	952.74121	1705.4342	1186.4548	972.5705	1733.5841	1168.1414	1026.4707	1669.2146	-1551.6488	1027.895	1630.2435	-1552.1311	-324.24771	143.3387	480.52649	-320.83704	182.18547	479.98386
436	3.625	-1038.2731	214.48528	-1644.2283	-1109.1816	203.21283	-1599.6204	-1063.642	172.5705	-1625.5872	-1053.9941	262.05032	-1635.0223	-1353.0078	235.07341	1003.883	-1281.3495	227.13776	1052.2413	-1323.1824	194.12271	1020.8219	-1284.5731	288.07327	1052.7881	813.8324	187.67476	1209.4635	892.8067	177.69984	1180.0107	844.57843	145.20279	1198.3274	860.3761	292.34244	1167.3052	1115.8007	209.72136	-1401.7236	1056.2231	193.98987	-1460.1523	1094.9972	162.17563	-1423.9115	1069.8669	238.59891	-1425.9617	-1204.4402	1685.9347	-1563.3412	-1129.1149	1688.2838	-1606.3152	-1173.1171	1724.3904	-1581.9872	-1133.5588	1581.0336	-1603.5107	-1239.712	1699.22	1119.2723	-1309.5767	1699.0543	1071.7524	-1270.3669	1736.1626	1096.66	-1244.6687	1594.1417	1106.3296	988.82605	1664.2611	1162.2404	957.35291	1700.3298	1183.6693	922.10468	1662.0712	1214.7446	939.7608	1659.3029	1159.8842	999.1814	1668.568	-1579.5558	1058.8704	1670.175	-1518.6404	1025.0479	1708.0106	-1551.1543	1059.2802	1672.1547	-1585.5728	-287.20184	140.1739	479.86841	-371.06589	146.5296	481.47485	-327.58704	105.84181	481.0817	-323.97556	145.05106	512.34955	-324.76404	141.39629	434.31561																																														-1069.0671	209.58989	-1624.856	-1074.7209	248.17036	-1624.094	-1321.8077	231.61823	1024.9382	-1320.3876	270.35962	1029.1913	848.69147	183.27184	1196.463	852.87579	222.00032	1194.5664	1088.6693	202.55731	-1428.3318	1082.6667	240.8638	-1432.5248	-1171.9022	1686.9493	-1581.9044	-1170.6373	1647.97	-1581.8184	-1271.1261	1699.1454	1097.9053	-1271.9255	1660.1757	1099.2162	952.82941	1705.5135	1186.7491	972.75909	1733.6926	1168.59	1026.5598	1669.3051	-1551.6146	1028.0822	1630.3376	-1552.0781	-324.77881	143.02168	480.58817	-321.84167	181.9075	480.07205
